<?xml version="1.0" encoding="utf-8"?>
<!-- Generator: Adobe Illustrator 25.0.0, SVG Export Plug-In . SVG Version: 6.00 Build 0)  -->
<svg version="1.1" id="Layer_1" xmlns="http://www.w3.org/2000/svg" xmlns:xlink="http://www.w3.org/1999/xlink" x="0px" y="0px"
	 viewBox="0 0 500 500" style="enable-background:new 0 0 500 500;" xml:space="preserve">
<style type="text/css">
	.st0{fill:#6A67E5;}
	.st1{fill:#FFFFFF;}
</style>
<g>
	<path class="st0" d="M278.3,63.1L278.3,63.1c-18.6-4.3-38-4.3-56.6,0l0,0c-41.8,9.6-74.5,39.7-85.3,78.3l0,0
		c-19.9,71.2-19.9,146,0,217.3l0,0c10.8,38.6,43.5,68.6,85.3,78.3l0,0c18.6,4.3,38,4.3,56.6,0l0,0c41.8-9.6,74.5-39.7,85.3-78.3l0,0
		c19.9-71.2,19.9-146,0-217.3l0,0C352.8,102.8,320.1,72.7,278.3,63.1z"/>
	<path class="st1" d="M306.6,150.3c0,27.7-11.5,52.9-32.5,71c-18.6,16.1-43,25.5-69.3,26.9v-32.5c15.2-1.3,29.1-6.7,39.7-15.5
		c14.2-11.9,21.7-29.2,21.7-50H252c0,22.3-12.5,48.2-47.2,51.3v-51.3h-14.2V353h14.2v-90.5c29.7-1.5,57.4-12.1,78.6-30.4
		c24.1-20.8,37.4-49.9,37.4-81.8H306.6z"/>
</g>
</svg>
